<svg width="233" height="170" viewBox="0 0 233 170" fill="none" xmlns="http://www.w3.org/2000/svg">
<path d="M126.115 17C118.586 17 111.16 18.5362 104.426 21.4868C97.6911 24.4375 91.8331 28.7217 87.3155 34C97.6286 33.998 107.757 36.3975 116.664 40.9528C125.571 45.5081 132.937 52.0555 138.008 59.925C140.497 59.6416 143.005 59.4996 145.515 59.5H174.615V28.3475C174.615 22.083 168.815 17 161.666 17H126.115ZM90.5844 127.407C83.9547 127.799 77.3037 126.993 71.044 125.04C64.7844 123.086 59.0496 120.027 54.1954 116.05C49.3412 112.074 45.4713 107.266 42.8256 101.925C40.1799 96.5835 38.815 90.8228 38.8155 85V53.8475C38.8155 47.583 44.6161 42.5 51.765 42.5H87.3155C104.358 42.5 119.345 50.201 127.997 61.8545C113.9 65.7704 102.023 74.2275 94.7651 85.5185L81.0493 73.491C80.1386 72.693 78.9034 72.2446 77.6155 72.2446C76.3276 72.2446 75.0924 72.693 74.1817 73.491C73.271 74.289 72.7594 75.3714 72.7594 76.5C72.7594 77.6286 73.271 78.711 74.1817 79.509L90.5068 93.806C88.3893 99.176 87.3107 104.818 87.3155 110.5C87.3155 116.424 88.4698 122.111 90.5844 127.407ZM97.0155 110.5C97.0155 99.2283 102.125 88.4183 111.221 80.448C120.316 72.4777 132.652 68 145.515 68H181.066C188.215 68 194.015 73.083 194.015 79.3475V110.5C194.016 118.544 191.412 126.422 186.506 133.22C181.6 140.018 174.592 145.457 166.299 148.904C158.005 152.35 148.766 153.664 139.654 152.692C130.542 151.72 121.932 148.502 114.825 143.412L105.299 151.759C104.389 152.556 103.154 153.003 101.867 153.002C100.58 153.002 99.346 152.553 98.4365 151.755C97.5271 150.957 97.0167 149.875 97.0176 148.747C97.0186 147.619 97.5307 146.538 98.4414 145.741L107.967 137.394C100.872 129.811 97.001 120.306 97.0155 110.5ZM121.721 137.36L153.799 109.259C154.71 108.462 155.222 107.381 155.223 106.253C155.224 105.125 154.714 104.043 153.804 103.245C152.895 102.447 151.661 101.998 150.374 101.998C149.087 101.997 147.852 102.444 146.941 103.241L114.863 131.351C116.868 133.606 119.154 135.609 121.721 137.36Z" fill="#62BA85"/>
<path d="M14.464 105.56C11.8187 105.56 9.49333 105.283 7.488 104.728C5.48266 104.173 4.05333 103.555 3.2 102.872C1.06666 101.208 -3.21865e-06 99.288 -3.21865e-06 97.112C-3.21865e-06 95.2773 0.78933 93.4427 2.368 91.608C3.98933 89.7307 6.44266 88.024 9.728 86.488C13.0133 84.9093 17.152 83.672 22.144 82.776C24.2773 82.392 26.432 82.0933 28.608 81.88C30.8267 81.6667 33.0453 81.56 35.264 81.56C37.1413 81.56 39.0187 81.6453 40.896 81.816C42.816 81.9867 44.6933 82.264 46.528 82.648C47.1253 82.776 47.808 82.9467 48.576 83.16C49.344 83.3307 50.1333 83.544 50.944 83.8C54.4853 80.1733 57.9413 76.568 61.312 72.984C64.6827 69.4 67.9467 66.3707 71.104 63.896C73.3227 62.1467 75.392 60.952 77.312 60.312C79.232 59.672 80.9387 59.352 82.432 59.352C84.1813 59.352 85.6107 59.6293 86.72 60.184C87.872 60.696 88.6187 61.1227 88.96 61.464C89.088 61.592 89.088 61.72 88.96 61.848C88.832 61.976 88.704 61.976 88.576 61.848C88.3627 61.592 87.8507 61.3147 87.04 61.016C86.2293 60.7173 85.184 60.568 83.904 60.568C82.3253 60.568 80.4693 60.9307 78.336 61.656C76.2027 62.3813 73.8347 63.7467 71.232 65.752C68.032 68.2693 64.8533 71.1707 61.696 74.456C58.5813 77.6987 55.4027 80.9627 52.16 84.248C53.824 84.8453 55.3387 85.656 56.704 86.68C58.112 87.704 58.9227 88.9627 59.136 90.456V90.712C59.136 90.8827 59.0933 90.968 59.008 90.968C58.88 90.968 58.752 90.84 58.624 90.584C58.4533 90.1147 57.9627 89.7093 57.152 89.368C56.384 89.0267 55.488 88.7493 54.464 88.536C53.44 88.3227 52.4587 88.152 51.52 88.024C50.5813 87.896 49.8773 87.8107 49.408 87.768L48.704 87.704C45.1627 91.1173 41.4933 94.2747 37.696 97.176C33.9413 100.035 29.952 102.189 25.728 103.64C23.7227 104.323 21.76 104.813 19.84 105.112C17.9627 105.411 16.1707 105.56 14.464 105.56ZM63.936 108.696C62.016 107.331 60.608 105.688 59.712 103.768C58.816 101.848 58.368 99.7787 58.368 97.56C58.368 95.3413 58.752 93.1227 59.52 90.904C60.288 88.6427 61.3973 86.296 62.848 83.864C64.3413 81.432 65.9627 79.064 67.712 76.76C69.4613 74.4133 71.1467 72.28 72.768 70.36C74.432 68.3973 75.8187 66.776 76.928 65.496C78.08 64.216 78.7627 63.4267 78.976 63.128C79.232 62.7867 79.424 62.616 79.552 62.616C79.7227 62.616 79.8507 62.7653 79.936 63.064C80.0213 63.32 80.064 63.6187 80.064 63.96C80.064 64.6427 79.9573 65.1333 79.744 65.432C78.6347 66.84 77.312 68.632 75.776 70.808C74.24 72.984 72.6827 75.416 71.104 78.104C69.5253 80.7493 68.0533 83.48 66.688 86.296C65.3227 89.112 64.2133 91.864 63.36 94.552C62.5493 97.24 62.144 99.6933 62.144 101.912C62.144 103.192 62.3147 104.365 62.656 105.432C62.9973 106.499 63.552 107.437 64.32 108.248C64.3627 108.291 64.384 108.355 64.384 108.44C64.384 108.525 64.3413 108.611 64.256 108.696C64.1707 108.781 64.064 108.781 63.936 108.696ZM14.656 104.472C16.2347 104.472 17.9413 104.323 19.776 104.024C21.6107 103.768 23.5093 103.341 25.472 102.744C29.1413 101.592 32.7893 99.6293 36.416 96.856C40.0427 94.0827 43.6053 90.9893 47.104 87.576C46.5493 87.5333 45.9947 87.512 45.44 87.512C44.8853 87.512 44.3093 87.512 43.712 87.512C40.7253 87.512 37.6107 87.6613 34.368 87.96C31.168 88.2587 28.1173 88.6853 25.216 89.24C20.5227 90.0507 16.6827 91.0747 13.696 92.312C10.752 93.5067 8.576 94.7653 7.168 96.088C5.80266 97.4107 5.12 98.6693 5.12 99.864C5.12 101.016 5.696 102.019 6.848 102.872C7.44533 103.299 8.42666 103.661 9.792 103.96C11.1573 104.301 12.7787 104.472 14.656 104.472ZM61.9695 120.088C59.3668 120.088 57.2122 119.789 55.5055 119.192C53.7988 118.595 52.4335 117.784 51.4095 116.76C50.7268 116.035 50.0868 115.075 49.4895 113.88C48.8922 112.728 48.5935 111.747 48.5935 110.936C48.5935 110.637 48.6575 110.488 48.7855 110.488C49.0842 110.488 49.2762 110.659 49.3615 111C49.3615 111.128 49.5108 111.619 49.8095 112.472C50.0655 113.325 50.5562 114.264 51.2815 115.288C52.0068 116.312 53.0735 117.208 54.4815 117.976C55.8895 118.744 57.7242 119.128 59.9855 119.128C62.6735 119.128 65.0842 118.488 67.2175 117.208C69.3508 115.971 71.2495 114.328 72.9135 112.28C74.6202 110.275 76.1775 108.077 77.5855 105.688C78.9935 103.299 80.3375 100.952 81.6175 98.648C82.8975 96.344 84.1988 94.3173 85.5215 92.568C84.9668 93.1653 84.2628 93.912 83.4095 94.808C82.5988 95.6613 81.7242 96.536 80.7855 97.432C79.8468 98.328 78.9508 99.1387 78.0975 99.864C77.2442 100.589 76.5402 101.123 75.9855 101.464C75.0468 102.019 74.1508 102.424 73.2975 102.68C72.4868 102.936 71.7402 103.064 71.0575 103.064C69.7348 103.064 68.7108 102.659 67.9855 101.848C67.2602 100.995 66.8975 99.9067 66.8975 98.584C66.8975 97.3467 67.2175 95.9813 67.8575 94.488C68.5402 92.9947 69.6068 91.48 71.0575 89.944C72.5508 88.3227 74.4068 87.0213 76.6255 86.04C78.8442 85.016 80.9562 84.504 82.9615 84.504C83.6868 84.504 84.3908 84.5893 85.0735 84.76C85.7562 84.888 86.3748 85.1227 86.9295 85.464C87.6975 85.9333 88.2522 86.3813 88.5935 86.808C88.9775 87.192 89.2548 87.6613 89.4255 88.216C89.6815 88.216 90.0868 88.344 90.6415 88.6C91.1962 88.8133 91.7082 89.0907 92.1775 89.432C92.6468 89.7307 92.8815 90.0507 92.8815 90.392C92.8815 90.5627 92.7108 90.7547 92.3695 90.968C91.5162 91.3947 90.5562 92.4187 89.4895 94.04C88.4228 95.6187 87.2282 97.5173 85.9055 99.736C84.6255 101.912 83.1748 104.173 81.5535 106.52C79.9748 108.909 78.2042 111.128 76.2415 113.176C74.2788 115.224 72.1028 116.888 69.7135 118.168C67.3668 119.448 64.7855 120.088 61.9695 120.088ZM72.8495 101.4C73.7028 101.4 74.7482 100.973 75.9855 100.12C76.9242 99.48 77.9482 98.6907 79.0575 97.752C80.1668 96.7707 81.2548 95.7467 82.3215 94.68C83.3882 93.6133 84.3055 92.632 85.0735 91.736C86.4815 90.1147 87.1855 88.792 87.1855 87.768C87.1855 86.9147 86.6735 86.488 85.6495 86.488C84.6255 86.488 83.2175 86.9787 81.4255 87.96C80.4015 88.5147 79.3135 89.304 78.1615 90.328C77.0095 91.352 75.9215 92.4613 74.8975 93.656C73.9162 94.8507 73.1268 95.96 72.5295 96.984C71.8468 98.2213 71.5055 99.224 71.5055 99.992C71.5055 100.931 71.9535 101.4 72.8495 101.4ZM102.765 103.064C100.931 103.064 99.6935 102.723 99.0535 102.04C98.4135 101.315 98.0935 100.525 98.0935 99.672C98.0935 98.5627 98.5202 97.3893 99.3735 96.152C99.8855 95.4267 100.461 94.616 101.101 93.72C101.741 92.7813 102.339 91.9067 102.893 91.096C103.448 90.2853 103.832 89.7093 104.045 89.368C104.344 88.9413 104.515 88.664 104.557 88.536C104.643 88.3653 104.685 88.1947 104.685 88.024C104.685 87.768 104.515 87.5333 104.173 87.32C103.875 87.064 103.363 86.936 102.637 86.936C102.424 86.936 102.232 86.9573 102.061 87C101.933 87 101.784 87 101.613 87C101.272 87 101.08 86.9787 101.037 86.936L100.845 87.192C99.6508 88.7707 98.3708 90.328 97.0055 91.864C95.6402 93.3573 94.1468 94.744 92.5255 96.024C92.3548 96.152 92.2268 96.216 92.1415 96.216C91.9708 96.216 91.8855 96.1307 91.8855 95.96C91.8855 95.6187 92.1415 95.2347 92.6535 94.808C93.9762 93.6987 95.2775 92.4613 96.5575 91.096C97.8375 89.688 98.9895 88.216 100.013 86.68C99.6295 86.424 99.4375 85.912 99.4375 85.144C99.4375 83.992 99.8002 82.7547 100.525 81.432C101.037 80.536 101.592 79.8747 102.189 79.448C102.829 78.9787 103.384 78.744 103.853 78.744C104.749 78.744 105.197 79.2773 105.197 80.344C105.197 81.0267 104.941 81.88 104.429 82.904C104.216 83.416 103.789 84.0773 103.149 84.888C102.552 85.656 101.955 86.2107 101.357 86.552C102.253 86.2533 103.384 86.0613 104.749 85.976C106.157 85.848 107.331 85.784 108.269 85.784C108.824 85.784 109.507 85.9547 110.317 86.296C111.128 86.5947 111.533 87.1493 111.533 87.96C111.533 88.5147 111.277 89.112 110.765 89.752C110.637 89.9227 110.296 90.328 109.741 90.968C109.187 91.608 108.568 92.376 107.885 93.272C107.245 94.168 106.648 95.064 106.093 95.96C105.539 96.7707 105.091 97.5173 104.749 98.2C104.451 98.8827 104.301 99.4587 104.301 99.928C104.301 100.611 104.685 100.952 105.453 100.952C106.349 100.952 107.544 100.525 109.037 99.672C110.531 98.8187 112.131 97.7307 113.837 96.408C115.587 95.0427 117.187 93.6347 118.637 92.184C118.808 92.0133 118.957 91.928 119.085 91.928C119.256 91.928 119.341 92.0347 119.341 92.248C119.341 92.504 119.235 92.7387 119.021 92.952C117.528 94.4453 115.864 95.9813 114.029 97.56C112.237 99.096 110.36 100.397 108.397 101.464C106.477 102.531 104.6 103.064 102.765 103.064ZM130.562 83.416C129.965 83.416 129.517 83.224 129.218 82.84C128.92 82.456 128.77 82.0507 128.77 81.624C128.77 80.7707 129.176 79.9387 129.986 79.128C130.797 78.2747 131.65 77.848 132.546 77.848C133.144 77.848 133.592 78.04 133.89 78.424C134.189 78.808 134.338 79.2133 134.338 79.64C134.338 80.536 133.933 81.3893 133.122 82.2C132.354 83.0107 131.501 83.416 130.562 83.416ZM120.77 103.064C119.021 103.064 117.826 102.701 117.186 101.976C116.589 101.208 116.29 100.355 116.29 99.416C116.29 98.648 116.418 97.9227 116.674 97.24C116.93 96.5147 117.144 96.0027 117.314 95.704C117.57 95.2773 117.912 94.7867 118.338 94.232C118.808 93.6773 119.32 93.08 119.874 92.44C119.021 93.1653 118.21 93.8693 117.442 94.552C116.717 95.2347 116.12 95.7467 115.65 96.088C115.522 96.216 115.394 96.28 115.266 96.28C115.096 96.28 115.01 96.1733 115.01 95.96C115.01 95.6187 115.245 95.2773 115.714 94.936C116.824 93.9973 117.89 92.9733 118.914 91.864C119.981 90.7547 120.984 89.7307 121.922 88.792C122.861 87.8107 123.693 87.128 124.418 86.744C125.186 86.3173 125.805 86.04 126.274 85.912C126.744 85.784 127.128 85.72 127.426 85.72C127.896 85.72 128.237 85.8053 128.45 85.976C128.664 86.104 128.706 86.2533 128.578 86.424C127.853 87.1493 127.128 88.088 126.402 89.24C125.72 90.3493 125.08 91.5227 124.482 92.76C123.885 93.9973 123.394 95.1707 123.01 96.28C122.669 97.3893 122.498 98.328 122.498 99.096C122.498 100.163 122.925 100.696 123.778 100.696C124.589 100.696 125.634 100.333 126.914 99.608C128.237 98.84 129.602 97.88 131.01 96.728C132.461 95.576 133.805 94.4453 135.042 93.336C135.213 93.1653 135.362 93.08 135.49 93.08C135.704 93.08 135.81 93.1867 135.81 93.4C135.853 93.6133 135.81 93.7627 135.682 93.848C134.274 95.1707 132.674 96.5573 130.882 98.008C129.133 99.416 127.362 100.611 125.57 101.592C123.821 102.573 122.221 103.064 120.77 103.064ZM137.563 103.704C135.857 103.704 134.363 103.384 133.083 102.744C131.761 102.061 130.801 100.824 130.203 99.032C130.161 98.8613 130.225 98.7547 130.395 98.712C130.523 98.6693 130.609 98.7547 130.651 98.968C131.078 99.9067 131.633 100.568 132.315 100.952C132.998 101.336 133.745 101.528 134.555 101.528C135.921 101.528 137.115 101.123 138.139 100.312C139.206 99.5013 140.145 98.4773 140.955 97.24C141.809 96.0027 142.555 94.744 143.195 93.464C143.878 92.1413 144.518 91.0107 145.115 90.072C146.054 88.4933 147.163 87.064 148.443 85.784C149.766 84.504 150.961 83.7147 152.027 83.416C151.771 83.288 151.451 83.224 151.067 83.224C150.001 83.224 148.827 83.544 147.547 84.184C146.267 84.824 144.966 85.656 143.643 86.68C142.363 87.704 141.105 88.792 139.867 89.944C138.673 91.0533 137.563 92.0987 136.539 93.08C135.558 94.0187 134.769 94.7653 134.171 95.32C133.83 95.6187 133.574 95.768 133.403 95.768C133.233 95.768 133.147 95.6827 133.147 95.512C133.147 95.256 133.254 95.0213 133.467 94.808C134.747 93.6987 136.07 92.4613 137.435 91.096C138.801 89.688 140.187 88.344 141.595 87.064C143.003 85.7413 144.433 84.6533 145.883 83.8C147.334 82.9467 148.806 82.52 150.299 82.52C150.47 82.52 150.619 82.52 150.747 82.52C150.918 82.52 151.089 82.5413 151.259 82.584C151.729 82.6267 152.155 82.7547 152.539 82.968C152.966 83.1813 153.094 83.3307 152.923 83.416C151.942 83.8427 151.174 84.696 150.619 85.976C150.065 87.256 149.553 88.7493 149.083 90.456C148.614 92.1627 148.038 93.8907 147.355 95.64C146.715 97.3893 145.777 98.9467 144.539 100.312C145.137 100.099 146.075 99.608 147.355 98.84C148.635 98.072 150.043 97.1333 151.579 96.024C153.115 94.872 154.545 93.6133 155.867 92.248C156.038 92.0773 156.209 91.992 156.379 91.992C156.593 91.992 156.699 92.0987 156.699 92.312C156.699 92.4827 156.614 92.6533 156.443 92.824C155.291 93.9333 154.011 95.128 152.603 96.408C151.195 97.6453 149.659 98.8187 147.995 99.928C146.374 101.037 144.689 101.955 142.939 102.68C141.19 103.363 139.398 103.704 137.563 103.704ZM159.684 103.64C157.85 103.64 156.292 103.192 155.012 102.296C153.775 101.357 153.156 100.013 153.156 98.264C153.156 96.3867 153.604 94.6373 154.5 93.016C155.439 91.3947 156.655 89.9867 158.148 88.792C159.642 87.5547 161.263 86.5947 163.012 85.912C164.804 85.2293 166.575 84.888 168.324 84.888C170.074 84.888 171.354 85.208 172.164 85.848C173.018 86.488 173.444 87.256 173.444 88.152C173.444 88.7493 173.274 89.3467 172.932 89.944C172.591 90.4987 172.122 90.776 171.524 90.776C171.14 90.776 170.948 90.6267 170.948 90.328C170.948 90.1147 171.012 89.9227 171.14 89.752C171.652 88.856 171.908 88.0667 171.908 87.384C171.908 86.5307 171.46 86.104 170.564 86.104C169.839 86.104 168.9 86.3813 167.748 86.936C166.81 87.3627 165.807 88.024 164.74 88.92C163.716 89.7733 162.756 90.776 161.86 91.928C160.964 93.0373 160.218 94.1893 159.62 95.384C159.066 96.536 158.788 97.624 158.788 98.648C158.788 99.6293 159.066 100.44 159.62 101.08C160.175 101.72 161.007 102.04 162.116 102.04C162.842 102.04 163.695 101.869 164.676 101.528C165.7 101.187 166.831 100.632 168.068 99.864C169.092 99.224 170.159 98.456 171.268 97.56C172.42 96.664 173.53 95.7467 174.596 94.808C175.663 93.8693 176.58 93.0587 177.348 92.376C177.604 92.12 177.818 91.992 177.988 91.992C178.159 91.992 178.244 92.0987 178.244 92.312C178.244 92.6107 178.116 92.8667 177.86 93.08C176.751 94.104 175.535 95.2133 174.212 96.408C172.89 97.56 171.503 98.648 170.052 99.672C168.644 100.696 167.258 101.528 165.892 102.168C163.674 103.149 161.604 103.64 159.684 103.64ZM178.748 103.064C177.425 103.064 176.401 102.659 175.676 101.848C174.951 100.995 174.588 99.9067 174.588 98.584C174.588 97.3467 174.908 95.9813 175.548 94.488C176.231 92.9947 177.297 91.48 178.748 89.944C180.241 88.3227 182.097 87.0213 184.316 86.04C186.535 85.016 188.647 84.504 190.652 84.504C192.273 84.504 193.66 84.8667 194.812 85.592C195.964 86.2747 196.732 87.1493 197.116 88.216C197.585 88.216 198.161 88.344 198.844 88.6C199.569 88.856 199.932 89.3253 199.932 90.008C199.932 90.4773 199.697 91.0107 199.228 91.608C198.929 92.0347 198.396 92.6747 197.628 93.528C196.903 94.3813 196.22 95.2987 195.58 96.28C195.068 97.048 194.663 97.7733 194.364 98.456C194.065 99.096 193.916 99.6507 193.916 100.12C193.916 100.76 194.236 101.08 194.876 101.08C195.601 101.08 196.689 100.675 198.14 99.864C199.719 98.968 201.233 97.944 202.684 96.792C204.135 95.64 205.265 94.7227 206.076 94.04C206.289 93.8693 206.439 93.784 206.524 93.784C206.695 93.784 206.78 93.8907 206.78 94.104C206.78 94.36 206.673 94.5947 206.46 94.808C206.076 95.1493 205.329 95.7893 204.22 96.728C203.111 97.6667 201.831 98.648 200.38 99.672C198.972 100.696 197.585 101.528 196.22 102.168C195.537 102.467 194.897 102.701 194.3 102.872C193.745 103 193.233 103.064 192.764 103.064C191.612 103.064 190.737 102.744 190.14 102.104C189.543 101.421 189.244 100.547 189.244 99.48C189.244 99.0533 189.308 98.6053 189.436 98.136C189.564 97.6667 189.713 97.1973 189.884 96.728L190.332 95.64C189.223 97.0053 188.113 98.1573 187.004 99.096C185.895 99.992 184.785 100.781 183.676 101.464C182.737 102.019 181.841 102.424 180.988 102.68C180.177 102.936 179.431 103.064 178.748 103.064ZM180.732 101.4C181.5 101.4 182.609 100.952 184.06 100.056C185.511 99.1173 187.196 97.688 189.116 95.768C189.372 95.512 189.841 95.064 190.524 94.424C191.249 93.7413 192.017 92.9947 192.828 92.184C193.639 91.3307 194.321 90.4987 194.876 89.688C195.473 88.8347 195.772 88.1307 195.772 87.576C195.772 86.7653 195.068 86.36 193.66 86.36C192.423 86.36 190.929 86.8507 189.18 87.832C187.473 88.7707 185.831 90.1787 184.252 92.056C182.631 93.976 181.436 95.64 180.668 97.048C179.943 98.4133 179.58 99.4587 179.58 100.184C179.58 100.995 179.964 101.4 180.732 101.4ZM205.345 103.32C204.919 103.32 204.407 103.213 203.809 103C203.212 102.829 202.615 102.488 202.017 101.976C202.487 101.336 203.169 100.483 204.065 99.416C204.919 98.3067 205.836 97.0907 206.817 95.768C207.799 94.4453 208.716 93.1227 209.569 91.8C208.887 92.4827 208.14 93.208 207.329 93.976C206.519 94.744 205.708 95.448 204.897 96.088C204.727 96.2587 204.535 96.344 204.321 96.344C204.151 96.344 204.065 96.2587 204.065 96.088C204.065 95.8747 204.236 95.6187 204.577 95.32C205.772 94.2533 207.095 93.0373 208.545 91.672C210.039 90.264 211.127 88.8347 211.809 87.384C212.023 86.872 212.129 86.4027 212.129 85.976C212.129 85.4213 212.023 85.08 211.809 84.952C211.639 84.824 211.553 84.6533 211.553 84.44C211.553 84.056 211.745 83.864 212.129 83.864C212.343 83.864 212.513 83.9067 212.641 83.992C213.111 84.2053 213.559 84.6107 213.985 85.208C214.412 85.8053 214.625 86.7013 214.625 87.896C214.625 88.5787 214.54 89.368 214.369 90.264C214.199 91.1173 213.9 92.0987 213.473 93.208C214.113 92.3547 214.753 91.5227 215.393 90.712C216.076 89.9013 216.695 89.176 217.249 88.536C218.401 87.2133 219.553 86.2747 220.705 85.72C221.9 85.1227 222.967 84.824 223.905 84.824C225.015 84.824 225.911 85.144 226.593 85.784C227.276 86.424 227.617 87.256 227.617 88.28C227.617 89.0907 227.404 89.9227 226.977 90.776C226.849 91.1173 226.551 91.6507 226.081 92.376C225.612 93.0587 225.1 93.8053 224.545 94.616C223.991 95.4267 223.479 96.152 223.009 96.792C222.455 97.4747 222.071 98.072 221.857 98.584C221.644 99.0533 221.537 99.4373 221.537 99.736C221.537 100.163 221.772 100.376 222.241 100.376C222.839 100.376 223.671 100.056 224.737 99.416C225.377 99.032 226.103 98.52 226.913 97.88C227.767 97.1973 228.599 96.5147 229.409 95.832C230.263 95.1067 230.945 94.5093 231.457 94.04C231.628 93.8693 231.777 93.784 231.905 93.784C232.076 93.784 232.161 93.8907 232.161 94.104C232.161 94.36 232.055 94.5947 231.841 94.808C230.561 96.0027 229.068 97.304 227.361 98.712C225.697 100.12 224.055 101.208 222.433 101.976C221.111 102.616 219.895 102.936 218.785 102.936C217.847 102.936 217.1 102.701 216.545 102.232C215.991 101.72 215.713 100.995 215.713 100.056C215.713 99.3733 215.884 98.5627 216.225 97.624C216.652 96.472 217.249 95.32 218.017 94.168C218.828 93.016 219.66 91.928 220.513 90.904C221.409 89.8373 222.177 88.9413 222.817 88.216C223.372 87.6187 223.649 87.1067 223.649 86.68C223.649 86.296 223.393 86.104 222.881 86.104C222.369 86.104 221.601 86.4027 220.577 87C219.596 87.5547 218.487 88.472 217.249 89.752C215.5 91.5867 213.964 93.5707 212.641 95.704C211.319 97.8373 209.804 99.8427 208.097 101.72C207.159 102.787 206.241 103.32 205.345 103.32Z" fill="#DCECA1"/>
</svg>
